<?xml version="1.0" encoding="UTF-8" standalone="no"?>
<svg
   version="1.0"
   width="365.80438pt"
   height="143.10474pt"
   viewBox="0 0 365.80438 143.10474"
   preserveAspectRatio="xMidYMid"
   id="svg4"
   sodipodi:docname="favicon.svg"
   inkscape:version="1.4 (e7c3feb100, 2024-10-09)"
   xmlns:inkscape="http://www.inkscape.org/namespaces/inkscape"
   xmlns:sodipodi="http://sodipodi.sourceforge.net/DTD/sodipodi-0.dtd"
   xmlns="http://www.w3.org/2000/svg"
   xmlns:svg="http://www.w3.org/2000/svg">
  <sodipodi:namedview
     id="namedview1"
     pagecolor="#ffffff"
     bordercolor="#000000"
     borderopacity="0.25"
     inkscape:showpageshadow="2"
     inkscape:pageopacity="0.0"
     inkscape:pagecheckerboard="0"
     inkscape:deskcolor="#d1d1d1"
     inkscape:document-units="pt"
     inkscape:zoom="2.9749507"
     inkscape:cx="243.86959"
     inkscape:cy="95.463767"
     inkscape:window-width="1620"
     inkscape:window-height="1018"
     inkscape:window-x="60"
     inkscape:window-y="0"
     inkscape:window-maximized="1"
     inkscape:current-layer="svg4" />
  <defs
     id="defs4" />
  <metadata
     id="metadata1">
Created by potrace 1.16, written by Peter Selinger 2001-2019
</metadata>
  <g
     transform="matrix(0.1,0,0,-0.1,-522.99999,445)"
     fill="#000000"
     stroke="none"
     id="g4">
    <path
       d="m 5230,4442 c 0,-5 157,-327 350,-715 350,-707 350,-707 393,-707 44,0 44,0 287,498 134,273 290,591 347,705 57,115 103,213 103,218 0,5 -65,9 -151,9 -150,0 -150,0 -204,-112 -29,-62 -121,-257 -204,-432 -83,-176 -154,-330 -157,-343 -9,-34 -31,-28 -44,13 -7,20 -95,208 -197,418 -101,209 -192,397 -201,416 -17,35 -17,35 -170,38 -83,1 -152,-1 -152,-6 z"
       id="path1"
       style="fill:#999999" />
    <path
       d="m 6867,4394 c -28,-56 -28,-56 139,-412 92,-197 174,-367 182,-380 8,-12 12,-25 9,-28 -3,-4 -60,-6 -126,-5 -119,2 -119,2 -165,-95 -76,-160 -96,-143 174,-146 232,-3 232,-3 303,-155 72,-153 72,-153 224,-153 84,0 153,3 153,8 0,4 -152,324 -338,712 -337,705 -337,705 -432,708 -96,3 -96,3 -123,-54 z"
       id="path2"
       style="fill:#999999" />
    <path
       d="m 7587,4443 c -4,-3 -7,-156 -7,-338 0,-332 0,-332 138,-611 137,-279 137,-279 140,-156 3,124 3,124 79,198 42,41 79,73 83,72 3,-2 57,-61 120,-133 440,-500 382,-455 577,-455 107,0 173,4 171,10 -3,8 -371,427 -595,677 -83,91 -83,91 120,290 111,109 257,252 325,318 67,65 122,123 122,127 0,4 -76,8 -170,8 -169,0 -169,0 -493,-320 -179,-176 -327,-320 -331,-320 -3,0 -6,144 -6,320 0,320 0,320 -133,320 -74,0 -137,-3 -140,-7 z"
       id="path3"
       style="fill:#999999" />
    <path
       d="m 6706,4048 c -18,-40 -135,-283 -260,-540 -124,-257 -226,-472 -226,-478 0,-7 49,-10 151,-8 150,3 150,3 334,398 102,217 185,403 185,413 0,26 -127,287 -140,287 -6,0 -26,-33 -44,-72 z"
       id="path4"
       style="fill:#999999" />
  </g>
</svg>
